<?xml version="1.0" encoding="UTF-8"?>
<svg id="Capa_2" data-name="Capa 2" xmlns="http://www.w3.org/2000/svg" viewBox="0 0 604.33 339.87">
  <defs>
    <style>
      .cls-1 {
        fill: #7f6e61;
      }
    </style>
  </defs>
  <polygon class="cls-1" points="0 100.95 6.48 99.21 22.66 100.95 36.74 100.95 54.48 96.42 72.92 96.42 78.83 95.21 100.4 96.25 115.87 99.73 120.05 98.08 127.18 100.95 140.05 98.86 144.92 99.9 157.61 97.29 166.83 95.21 180.22 93.12 195.18 89.47 212.92 89.47 225.96 88.25 239.18 85.47 250.83 81.47 262.13 81.47 269.79 83.38 276.22 81.47 284.74 82.34 287.7 81.47 295.87 81.47 304.74 79.55 314.31 80.77 317.09 78.68 323.7 78.68 333.79 75.55 337.26 75.55 346.13 69.82 349.79 71.03 354.66 68.08 357.83 68.71 363.63 67.14 383 68.77 386.85 67.14 392.85 68.12 398.07 66.23 401.85 67.27 413.59 73.14 417.44 82.53 418.09 86.71 421.35 88.01 425.66 94.21 427.74 101.9 428.13 108.49 433.16 111.68 438.5 111.68 441.5 110.51 443.85 112.08 444.7 114.03 447.18 114.82 448.48 116.51 452.26 116.25 457.42 119.64 462.11 119.38 468.44 117.49 472.09 120.16 476.72 123.36 479.26 125.9 482.66 125.9 487.55 130.08 491.79 133.99 497.72 134.64 500.92 137.9 506.13 139.73 511.68 143.9 514.35 145.47 522.24 146.58 527.66 146.58 531.09 148.32 534.16 148.32 536.44 149.75 539.11 151.18 542.18 151.18 544.53 152.42 549.74 153.34 555.16 152.68 561.55 154.12 567.94 153.73 574.2 153.53 581.83 154.58 590.31 156.53 595.28 158.1 595.28 339.87 0 339.87 0 100.95"/>
</svg>